<svg xmlns="http://www.w3.org/2000/svg" viewBox="0 0 64 64" width="64" height="64" shape-rendering="crispEdges">
<path d="M27,17h9v1h-9v-1zM24,18h3v1h-3v-1zM36,18h3v1h-3v-1zM22,19h2v1h-2v-1zM39,19h2v1h-2v-1zM21,20h1v1h-1v-1zM41,20h1v1h-1v-1zM19,21h1v1h-1v-1zM42,21h2v1h-2v-1zM18,22h1v1h-1v-1zM44,22h1v1h-1v-1zM17,23h1v2h-1v-2zM45,23h1v2h-1v-2zM16,25h1v2h-1v-2zM46,25h1v2h-1v-2zM15,27h1v3h-1v-3zM47,27h1v3h-1v-3zM14,30h1v7h-1v-7zM48,30h1v7h-1v-7zM15,37h1v3h-1v-3zM47,37h1v3h-1v-3zM16,40h1v2h-1v-2zM46,40h1v2h-1v-2zM17,42h1v2h-1v-2zM45,42h1v2h-1v-2zM18,44h1v1h-1v-1zM44,44h1v1h-1v-1zM19,45h2v1h-2v-1zM42,45h2v1h-2v-1zM21,46h1v1h-1v-1zM41,46h1v1h-1v-1zM22,47h2v1h-2v-1zM39,47h2v1h-2v-1zM24,48h3v1h-3v-1zM36,48h3v1h-3v-1zM27,49h9v1h-9v-1z" fill="#5a003e"/>
<path d="M17,29h2v3h-1v1h-1v1h1v1h1v1h2v1h1v3h-1v1h1v1h1v1h1v-1h3v1h1v1h1v2h1v1h1v-1h1v-1h3v1h1v2h-9v-1h-3v-1h-2v-1h-1v-1h-2v-2h-1v-2h-1v-3h-1v-7h1v-1z" fill="#801479"/>
<path d="M17,27h2v1h1v5h-1v1h1v1h1v1h-2v-1h-1v-1h-1v-1h1v-1h1v-3h-2v-2zM21,36h1v1h-1v-1zM22,37h1v4h4v1h-3v1h-1v-1h-1v-1h-1v-1h1v-3zM27,42h1v1h-1v-1zM28,43h1v1h-1v-1zM32,44h3v1h-3v-1zM29,45h1v1h-1v-1zM31,45h1v1h-1v-1zM35,45h1v1h-1v-1zM30,46h1v1h-1v-1zM36,46h1v1h-1v-1z" fill="#a91fa1"/>
<path d="M28,22h1v1h-1v-1zM29,23h1v3h-1v1h-3v-1h2v-1h1v-2zM24,24h1v1h-1v-1zM25,25h1v1h-1v-1zM20,29h1v3h-1v-3zM25,33h2v2h-2v-2zM43,33h1v2h-1v1h-1v1h-4v-1h2v-1h2v-1h1v-1zM20,34h1v1h-1v-1zM21,35h1v1h-1v-1zM30,35h4v1h-1v1h-2v-1h-1v-1zM22,36h1v1h-1v-1zM23,37h1v3h-1v-3zM39,38h2v1h-2v-1zM41,39h1v3h-1v-3zM24,40h3v1h-3v-1zM27,41h1v1h-1v-1zM37,41h2v1h2v1h-3v-1h-1v-1zM28,42h1v1h-1v-1zM29,43h1v2h-1v-2zM32,43h3v1h-3v-1zM31,44h1v1h-1v-1zM35,44h1v1h-1v-1zM30,45h1v1h-1v-1zM36,45h1v1h-1v-1zM37,46h1v1h-1v-1z" fill="#c324ba"/>
<path d="M16,27h1v3h-1v-3zM15,30h1v7h-1v-7zM16,37h1v3h-1v-3zM17,40h1v2h-1v-2zM18,42h1v2h-1v-2zM19,44h2v1h-2v-1zM21,45h1v1h-1v-1zM22,46h2v1h-2v-1zM24,47h3v1h-3v-1zM36,47h3v1h-3v-1zM27,48h9v1h-9v-1z" fill="#d432c9"/>
<path d="M21,21h2v1h-1v1h-1v2h-1v1h1v1h-1v1h-1v-1h-1v-2h1v-2h1v-1h1v-1z" fill="#e11da3"/>
<path d="M36,26h3v1h1v1h1v3h-2v-3h-1v-1h-2v-1zM33,28h1v1h-1v-1zM31,31h1v1h-1v-1zM32,32h1v1h1v1h-2v-2z" fill="#ee2de3"/>
<path d="M27,19h9v1h3v1h2v1h1v1h2v2h1v2h1v3h1v7h-1v3h-1v2h-1v2h-2v1h-1v1h-2v1h-1v-1h-1v-1h-1v-1h-1v-1h-3v1h-1v1h-1v-2h-1v-1h-1v-1h-1v-1h-3v-3h-1v-1h-1v-1h-1v-1h-2v-1h1v-1h1v-3h-1v-2h1v-1h-1v-1h1v-2h1v-1h1v-1h1v-1h3v-1zM28,23h1v2h-1v1h-2v-1h-1v-1h-1v1h1v1h1v1h3v-1h1v-3h-1v-1h-1v1zM30,29h1v1h-1v2h1v2h1v1h-2v1h1v1h2v-1h2v-1h1v1h2v1h4v-1h1v-1h1v-2h-1v-1h1v-1h-1v-1h1v-2h-1v-2h-1v-1h-2v-1h-3v1h-1v-1h-2v1h-2v1h-1v2h-1v1zM25,35h2v-2h-2v2zM38,35h1v1h-1v-1zM39,39h2v3h-2v-1h-2v1h1v1h3v-1h1v-3h-1v-1h-2v1zM23,40h1v1h-1v-1z" fill="#fb27b8"/>
<path d="M19,22h1v1h-1v-1zM18,23h1v2h-1v-2zM17,25h1v2h-1v-2z" fill="#ff24ba"/>
<path d="M31,32h1v2h-1v-2z" fill="#ff57ca"/>
<path d="M27,18h9v1h-9v-1zM24,19h3v1h-3v-1zM36,19h3v1h-3v-1zM22,20h2v1h-2v-1zM39,20h2v1h-2v-1zM20,21h1v1h-1v-1zM41,21h1v1h-1v-1zM42,22h2v1h-2v-1zM44,23h1v2h-1v-2zM45,25h1v2h-1v-2zM46,27h1v3h-1v-3zM47,30h1v7h-1v-7zM46,37h1v3h-1v-3zM45,40h1v2h-1v-2zM44,42h1v2h-1v-2zM42,44h2v1h-2v-1zM41,45h1v1h-1v-1zM39,46h2v1h-2v-1z" fill="#ff66cf"/>
<path d="M34,24h2v1h1v-1h3v1h2v1h1v2h1v2h-1v1h1v1h-1v2h-1v1h-2v1h-1v-1h-1v1h-2v-1h-1v1h-1v-1h-2v-1h2v-1h-1v-1h-1v-1h-1v1h-1v-2h1v-1h-1v-1h1v-2h1v-1h2v-1zM36,27h2v1h1v3h2v-3h-1v-1h-1v-1h-3v1zM33,29h1v-1h-1v1z" fill="#ff6bd0"/>
</svg>